<svg height="32" viewBox="0 0 32 32" width="32" xmlns="http://www.w3.org/2000/svg"><path d="m15.536.235v2.937h-2.624v.771h2.624v2.937h.933v-2.937h2.624v-.771h-2.624v-2.937zm8.043 3.016v4.328h-3.943v1.233h3.943v4.251h1.391l.009-2.109.032-2.099 1.953-.032 1.943-.011v-1.233h-3.937v-4.328zm-16.543.077v4.256h-3.984v1.228h3.984v4.256h1.313v-4.256h4.015v-1.233h-4.015v-4.251zm8.115 7.027v4.791h-4.405v1.584h4.405v4.797h1.709v-4.797h4.411v-1.584h-4.411v-4.791zm12.964 2.066v2.959h-2.688v1.084h2.688v3.015h1.183v-3.015h2.703v-1.084h-2.703v-2.959zm-25.484.172v2.901h-2.631v.828h2.631v2.928h.891v-2.928h2.667v-.828h-2.709v-2.901zm20.948 6.027v4.339h-4.027v1.235h4.027v4.285h1.427v-4.285h3.979v-1.235h-3.979v-4.339zm-16.62.011v4.328h-3.943v1.235h3.943v4.255h1.468v-4.255h3.937v-1.235h-3.937v-4.333h-.733zm8.421 6.104v2.937h-2.625v1.077h2.625v3.016h1.24l.016-1.489.02-1.527h2.631v-1.077h-2.667v-2.937z"/></svg>